<svg xmlns="http://www.w3.org/2000/svg" viewBox="-8 -6 176 176" width="160" height="160" role="img" aria-label="გენაცვალე"><defs>
<filter id="cut" x="-15%" y="-15%" width="130%" height="135%">
  <feMorphology in="SourceAlpha" operator="dilate" radius="4" result="d"/>
  <feFlood flood-color="#fff" result="wc"/><feComposite in="wc" in2="d" operator="in" result="w"/>
  <feGaussianBlur in="d" stdDeviation="2.5" result="b"/><feOffset in="b" dy="3" result="o"/>
  <feFlood flood-color="#120d2a" flood-opacity=".35" result="sc"/><feComposite in="sc" in2="o" operator="in" result="s"/>
  <feMerge><feMergeNode in="s"/><feMergeNode in="w"/><feMergeNode in="SourceGraphic"/></feMerge>
</filter>
<linearGradient id="mas" x1="0" y1="0" x2="1" y2="1"><stop offset="0" stop-color="#8f6bff"/><stop offset="1" stop-color="#4f6cff"/></linearGradient>
<linearGradient id="gold" x1="0" y1="0" x2="0" y2="1"><stop offset="0" stop-color="#fff1c2"/><stop offset="1" stop-color="#d6a84f"/></linearGradient>
<linearGradient id="wine" x1="0" y1="0" x2="0" y2="1"><stop offset="0" stop-color="#c2185b"/><stop offset="1" stop-color="#6a0d33"/></linearGradient>
<linearGradient id="dough" x1="0" y1="0" x2="0" y2="1"><stop offset="0" stop-color="#ffd58a"/><stop offset="1" stop-color="#d98c2b"/></linearGradient>
<radialGradient id="cheese" cx=".5" cy=".45" r=".6"><stop offset="0" stop-color="#fff6c9"/><stop offset="1" stop-color="#ffd54f"/></radialGradient>
<radialGradient id="yolk" cx=".4" cy=".35" r=".7"><stop offset="0" stop-color="#ffe082"/><stop offset="1" stop-color="#ff9800"/></radialGradient>
</defs><g filter="url(#cut)"><path d="M80 136 C20 96 8 66 22 42 C36 18 66 20 80 44 C94 20 124 18 138 42 C152 66 140 96 80 136 z" fill="#ff3b6b"/><path d="M38 44 q8 -14 24 -10" stroke="#fff" stroke-width="5" fill="none" opacity=".5" stroke-linecap="round"/><path d="M26.9 97.4Q25.6 97.4 24.7 96.9Q23.7 96.4 23.1 95.6Q22.4 94.8 22.1 93.7Q21.7 92.6 21.7 91.4Q21.7 89.8 22.3 88.6Q22.8 87.5 23.7 86.7Q24.7 85.9 26 85.6Q27 85.3 27.4 84.9Q27.8 84.5 27.8 83.7Q27.8 83.2 27.6 82.9Q27.4 82.6 26.9 82.6Q26.5 82.6 26.3 82.9Q26 83.2 26 83.7Q26 83.8 26.1 84Q26.1 84.2 26.1 84.4H22.8Q22.7 84.1 22.7 83.8Q22.6 83.5 22.6 83.3Q22.6 82.3 23.1 81.5Q23.7 80.7 24.6 80.3Q25.6 79.8 26.9 79.8Q28.4 79.8 29.4 80.3Q30.4 80.8 30.8 81.6Q31.3 82.4 31.3 83.4Q31.3 84.2 30.9 85Q30.6 85.7 29.5 86.2V86.3Q30.3 86.6 30.9 87.3Q31.5 87.9 31.8 88.9Q32.1 89.9 32.1 91.4Q32.1 92.6 31.8 93.6Q31.6 94.7 30.9 95.6Q30.3 96.4 29.3 96.9Q28.3 97.4 26.9 97.4ZM26.9 94.4Q27.5 94.4 27.8 94.1Q28.1 93.7 28.3 93Q28.4 92.4 28.4 91.4Q28.4 90.4 28.3 89.8Q28.1 89.1 27.8 88.8Q27.5 88.4 26.9 88.4Q26.2 88.4 25.8 89.2Q25.5 89.9 25.5 91.4Q25.5 92.4 25.6 93Q25.8 93.7 26.1 94.1Q26.4 94.4 26.9 94.4ZM38.6 97.4Q37.4 97.4 36.5 97Q35.6 96.6 34.9 95.9Q34.3 95.2 34 94.2Q33.6 93.3 33.6 92.2Q33.6 91.7 33.7 91.1Q33.8 90.5 34.1 89.9H37.5Q37.5 90.3 37.4 90.9Q37.3 91.4 37.3 91.9Q37.3 92.6 37.4 93.2Q37.6 93.8 37.8 94.1Q38.1 94.4 38.6 94.4Q39 94.4 39.3 94.2Q39.6 93.9 39.7 93.3Q39.8 92.8 39.8 91.8V84.6Q39.8 83.7 39.6 83.2Q39.3 82.8 38.8 82.8Q38.4 82.8 38.1 83Q37.9 83.2 37.8 83.6Q37.7 84 37.7 84.5Q37.7 84.9 37.7 85.4Q37.8 85.9 37.9 86.4H34.4Q34.2 85.8 34.1 85.4Q34 84.9 34 84.2Q34 82.7 34.6 81.8Q35.2 80.8 36.3 80.3Q37.4 79.8 38.7 79.8Q40.2 79.8 41.3 80.4Q42.4 81 42.9 82Q43.5 83.1 43.5 84.6V91.9Q43.5 93.7 42.9 94.9Q42.4 96.1 41.3 96.8Q40.2 97.4 38.6 97.4ZM50.7 92.2Q48.3 92.2 47 90.6Q45.7 89.1 45.7 86.1V79.7Q45.7 78.2 46.4 77.3Q47 76.4 48 76Q49 75.6 50.1 75.6H54.8V78.5H50.6Q50.1 78.5 49.8 78.8Q49.4 79 49.4 79.6V79.9Q49.4 80.3 49.4 80.7Q49.4 81.1 49.3 81.8H49.4Q49.7 81.3 50.1 80.9Q50.5 80.6 51 80.4Q51.6 80.3 52.2 80.3Q53.9 80.3 54.9 81.8Q55.9 83.3 55.9 86.1Q55.9 88 55.3 89.4Q54.7 90.8 53.5 91.5Q52.4 92.2 50.7 92.2ZM50.7 89.3Q51.6 89.3 51.9 88.5Q52.2 87.7 52.2 86.1Q52.2 84.7 51.8 83.9Q51.5 83.1 50.8 83.1Q50.3 83.1 50 83.4Q49.7 83.7 49.5 84.3Q49.3 84.9 49.3 85.7V86.2Q49.3 87.8 49.7 88.5Q50 89.3 50.7 89.3ZM62.4 92.2Q61 92.2 59.9 91.7Q58.8 91.1 58.1 90.2Q57.5 89.2 57.5 87.9Q57.5 87.2 57.6 86.7Q57.7 86.2 57.9 85.6H61.3Q61.2 86 61.2 86.4Q61.1 86.9 61.1 87.4Q61.1 87.9 61.3 88.3Q61.4 88.8 61.7 89Q62 89.3 62.4 89.3Q62.8 89.3 63 89Q63.3 88.8 63.5 88.5Q63.6 88.1 63.6 87.6Q63.6 86.7 63.3 86Q62.9 85.4 62.4 84.7Q62 84.2 61.6 83.5Q61.1 82.9 60.9 82Q60.6 81.2 60.6 80H64.3Q64.3 81.1 64.7 81.8Q65.2 82.6 65.7 83.4Q66.1 83.9 66.5 84.5Q66.9 85.1 67.1 85.9Q67.4 86.6 67.4 87.6Q67.4 89 66.7 90.1Q66.1 91.1 65 91.7Q63.8 92.2 62.4 92.2ZM75.3 97.4Q73.9 97.4 72.8 96.9Q71.7 96.5 70.8 95.4Q70 94.4 69.5 92.6Q69.1 90.9 69.1 88.4Q69.1 86.7 69.2 85.4Q69.4 84 69.7 82.7Q70.1 81.4 70.7 80H74.2Q73.7 81.5 73.4 82.8Q73 84.1 72.9 85.5Q72.8 86.8 72.8 88.4Q72.8 90.6 73.1 91.9Q73.4 93.3 74 93.8Q74.5 94.4 75.3 94.4Q76.4 94.4 76.9 93.8Q77.4 93.1 77.4 91.6Q77.4 90.8 77.2 90.2Q76.9 89.7 76.5 89.4Q76.1 89.1 75.6 89.1H75.1V86.1H75.9Q76.2 86.1 76.5 85.9Q76.8 85.8 77 85.5Q77.1 85.3 77.1 85Q77.1 84.4 76.9 83.9Q76.6 83.5 76.3 83Q75.9 82.6 75.7 81.9Q75.4 81.2 75.4 80.1L79.1 80Q79.1 80.6 79.4 81.1Q79.6 81.6 80 82.1Q80.4 82.5 80.6 83.1Q80.9 83.7 80.9 84.6Q80.9 85.7 80.2 86.5Q79.5 87.2 78.4 87.5V87.5Q79.1 87.7 79.8 88.3Q80.4 88.8 80.7 89.7Q81.1 90.6 81.1 92Q81.1 93.8 80.4 95Q79.6 96.2 78.3 96.8Q77 97.4 75.3 97.4ZM87.7 97.4Q86.6 97.4 85.6 97Q84.6 96.7 84 96Q83.3 95.4 82.9 94.5Q82.6 93.6 82.6 92.6Q82.6 92.1 82.7 91.6Q82.8 91.1 83 90.6H86.5Q86.4 91 86.3 91.4Q86.3 91.8 86.3 92.2Q86.3 92.8 86.4 93.3Q86.6 93.8 86.9 94.1Q87.2 94.4 87.7 94.4Q88.2 94.4 88.5 94.2Q88.8 93.9 88.9 93.4Q89.1 92.8 89.1 92.1Q89.1 91.2 88.9 90.7Q88.7 90.2 88.3 89.9Q88 89.6 87.5 89.6H86.9V86.7H87.6Q88.3 86.7 88.5 86.1Q88.8 85.5 88.8 84.6Q88.8 84 88.7 83.6Q88.6 83.2 88.3 83Q88.1 82.8 87.7 82.8Q87.4 82.8 87.1 83Q86.9 83.2 86.8 83.5Q86.7 83.9 86.7 84.3Q86.7 84.7 86.7 85Q86.8 85.4 86.8 85.7H83.4Q83.2 85.3 83.1 84.9Q83 84.6 83 84Q83 82.6 83.6 81.7Q84.2 80.8 85.3 80.3Q86.4 79.8 87.8 79.8Q89.2 79.8 90.2 80.4Q91.3 80.9 91.9 81.8Q92.5 82.8 92.5 84Q92.5 85.6 91.8 86.6Q91.1 87.5 89.8 88V88Q90.7 88.2 91.4 88.8Q92 89.3 92.4 90.2Q92.8 91.1 92.8 92.3Q92.8 93.8 92.2 94.9Q91.6 96.1 90.5 96.7Q89.4 97.4 87.7 97.4ZM99.2 92.2Q97.8 92.2 96.7 91.7Q95.6 91.1 94.9 90.2Q94.3 89.2 94.3 87.9Q94.3 87.2 94.4 86.7Q94.5 86.2 94.7 85.6H98.1Q98 86 98 86.4Q97.9 86.9 97.9 87.4Q97.9 87.9 98.1 88.3Q98.2 88.8 98.5 89Q98.7 89.3 99.1 89.3Q99.5 89.3 99.8 89Q100.1 88.8 100.3 88.5Q100.4 88.1 100.4 87.6Q100.4 86.7 100 86Q99.7 85.4 99.2 84.7Q98.8 84.2 98.3 83.5Q97.9 82.9 97.6 82Q97.4 81.2 97.4 80H101.1Q101.1 81.1 101.5 81.8Q101.9 82.6 102.5 83.4Q102.9 83.9 103.3 84.5Q103.7 85.1 103.9 85.9Q104.1 86.6 104.1 87.6Q104.1 89 103.5 90.1Q102.9 91.1 101.7 91.7Q100.6 92.2 99.2 92.2ZM117.3 97.4Q117 96.7 116.5 96.2Q115.9 95.8 115.3 95.5Q114.7 95.2 114 95Q113.4 94.9 112.7 94.9Q111.7 94.9 110.8 95.2Q110 95.5 109.4 95.9L108.2 93.5Q108.4 93.3 108.8 93.1Q109.2 93 109.7 92.8Q110.1 92.7 110.5 92.7V92.6Q109.4 92.1 108.5 91.5Q107.7 90.8 107.1 89.9Q106.5 89 106.2 87.9Q105.9 86.8 105.9 85.6Q105.9 83.9 106.3 82.6Q106.8 81.3 107.8 80.6Q108.7 79.8 110 79.8Q111.3 79.8 112.1 80.5Q112.9 81.1 113.3 82.2H113.4Q113.7 81.1 114.3 80.4Q115 79.8 116.1 79.8Q117.2 79.8 117.9 80.4Q118.6 81.1 118.8 82.2H119Q119.3 81.1 120.2 80.5Q121 79.8 122.2 79.8Q123.5 79.8 124.5 80.6Q125.4 81.3 125.9 82.7Q126.4 84 126.4 85.9Q126.4 87.4 126.1 88.6Q125.8 89.9 125.1 91.4L121.9 90.4Q122.3 89.3 122.5 88.2Q122.7 87.2 122.7 86Q122.7 84.3 122.4 83.5Q122.2 82.8 121.7 82.8Q121.1 82.8 120.9 83.4Q120.7 84 120.7 85.4V88.5H117.1V85.3Q117.1 84 116.9 83.4Q116.7 82.8 116.1 82.8Q115.6 82.8 115.4 83.4Q115.1 84 115.1 85.3V88.5H111.6V85.4Q111.6 84 111.3 83.4Q111.1 82.8 110.6 82.8Q110.1 82.8 109.8 83.5Q109.6 84.2 109.6 85.8Q109.6 87.2 109.9 88.2Q110.3 89.2 111 89.9Q111.6 90.7 112.5 91.2Q113.5 91.7 114.6 92Q115.9 92.4 117 93Q118.1 93.6 118.9 94.4Q119.8 95.2 120.1 96.2ZM133 97.4Q131.8 97.4 130.9 97Q129.9 96.6 129.3 95.9Q128.7 95.2 128.3 94.2Q128 93.3 128 92.2Q128 91.7 128.1 91.1Q128.2 90.5 128.4 89.9H131.9Q131.8 90.3 131.7 90.9Q131.6 91.4 131.6 91.9Q131.6 92.6 131.8 93.2Q131.9 93.8 132.2 94.1Q132.5 94.4 132.9 94.4Q133.4 94.4 133.7 94.2Q133.9 93.9 134.1 93.3Q134.2 92.8 134.2 91.8V84.6Q134.2 83.7 133.9 83.2Q133.7 82.8 133.1 82.8Q132.8 82.8 132.5 83Q132.3 83.2 132.1 83.6Q132 84 132 84.5Q132 84.9 132.1 85.4Q132.1 85.9 132.2 86.4H128.8Q128.5 85.8 128.4 85.4Q128.3 84.9 128.3 84.2Q128.3 82.7 129 81.8Q129.6 80.8 130.7 80.3Q131.8 79.8 133.1 79.8Q134.6 79.8 135.7 80.4Q136.7 81 137.3 82Q137.9 83.1 137.9 84.6V91.9Q137.9 93.7 137.3 94.9Q136.8 96.1 135.6 96.8Q134.5 97.4 133 97.4Z" fill="#fff" stroke="#8c0f33" stroke-width="5" stroke-linejoin="round" paint-order="stroke"/></g></svg>